<svg width="876" height="376" viewBox="0 0 876 376" fill="none" xmlns="http://www.w3.org/2000/svg">
<path d="M72.6194 313.122C52.329 317.783 32.1071 322.718 12.0213 327.859V375.565L72.6194 353.014V313.122ZM72.6194 280.77L12.0213 284.129V292.422L72.6194 312.025V280.77ZM121.914 37.3727C121.029 37.3727 119.054 36.3446 119.054 36.3446L116.944 27.6396L117.556 27.3654C118.374 27.0227 119.395 30.9297 119.463 33.1231C119.531 35.385 121.914 37.3727 121.914 37.3727ZM116.876 35.1793C115.514 34.0826 114.97 33.1231 114.97 33.1231C115.378 31.8892 115.378 28.1194 115.378 28.1194L116.876 35.1793ZM171.142 121.681C171.414 121.818 171.686 121.955 171.958 122.023L171.89 120.653C165.082 117.431 157.933 115.375 150.647 114.347C150.375 113.867 150.034 113.456 149.762 112.976V112.222C149.762 111.811 149.626 111.468 149.422 111.194H149.831C149.831 110.234 149.149 109.412 148.264 109.275C148.332 109.137 148.401 108.932 148.468 108.795C148.673 108.864 148.877 108.864 149.081 108.864C150.375 108.864 151.396 107.835 151.396 106.533C151.396 105.368 150.511 104.408 149.217 104.271C149.217 104.065 149.217 103.928 149.217 103.928C149.149 102.694 148.196 101.666 146.971 101.666C146.29 101.666 145.677 102.009 145.268 102.42C144.179 101.598 143.158 100.501 142.068 99.1299C142.068 99.1299 141.66 98.7188 141.183 98.1018C141.592 97.4848 141.728 96.7313 141.523 95.977C141.115 94.8803 139.957 94.2634 138.732 94.5379C138.664 94.4006 138.664 94.332 138.596 94.1947C138.051 93.0301 136.894 92.4131 135.736 92.8242C135.191 93.0301 134.714 93.4412 134.442 93.9895C134.238 94.332 134.17 94.8117 134.238 95.2235C133.353 95.1549 130.493 94.8803 128.451 92.8242C127.362 91.7275 126.68 90.357 126.272 88.6433H126.477C126.68 88.7799 126.885 88.9171 127.157 88.9171C127.633 88.9171 128.042 88.506 128.042 88.0263C128.042 87.8891 128.042 87.7518 127.974 87.6832H141.796C141.796 84.1879 138.596 81.0351 133.829 79.3214C133.626 78.7044 133.421 78.0874 133.285 77.8129C132.876 77.128 133.558 76.3737 134.034 75.894C134.442 75.4829 134.374 74.3176 134.374 74.3176H133.285C132.604 74.1803 135.532 71.5072 137.439 69.6566C139.345 67.8059 138.8 65.4755 138.868 62.8023C138.936 60.1291 137.574 59.238 137.574 59.238C139.004 56.7704 137.983 54.7827 137.439 53.7546C136.894 52.7264 136.894 52.9321 138.255 52.5893C139.617 52.2466 139.209 47.1058 138.8 45.735C138.46 44.3642 137.166 44.7068 137.166 44.7068C137.37 43.1303 136.349 42.1708 136.349 42.1708C136.349 42.1708 136.485 39.9088 135.941 39.3605C135.259 38.8121 135.191 37.784 135.191 37.784C135.191 35.3164 133.217 34.2197 131.515 34.1512C129.813 34.0826 130.63 35.5221 130.63 35.5221C129.472 35.3164 129.745 36.4817 129.745 36.4817C129.745 36.4817 130.63 37.8525 129.745 36.893C128.86 35.8647 127.565 36.0704 127.565 36.0704C128.655 34.1512 128.178 31.2723 127.974 30.0386C127.702 28.8733 128.315 25.7889 128.315 25.7889C128.518 25.4462 128.655 25.1034 128.655 24.6922C128.655 24.0068 128.315 23.3899 127.77 23.0472C128.178 22.3618 128.247 21.4707 127.838 20.6482C127.225 19.4829 125.932 18.9346 124.842 19.4829C124.706 19.5515 124.57 19.6886 124.434 19.7571C124.229 19.1402 123.549 18.5919 122.664 18.4548C122.527 18.3863 122.051 18.3863 121.778 18.4548C120.757 18.5919 119.939 19.2773 119.939 20.0998C119.939 20.1684 119.939 20.2369 120.008 20.374C119.804 20.3054 119.599 20.2369 119.395 20.2369C118.646 20.2369 118.033 20.6482 117.761 21.2651C116.876 20.7853 115.65 20.9223 115.65 20.9223C112.11 6.117 110.204 0.565002 110.204 0.565002C110.68 5.36303 114.085 21.128 114.085 21.128C111.565 21.8819 111.565 25.1034 111.565 25.1034C111.565 25.1034 110.612 26.9542 109.931 32.7118C109.319 38.4694 110.748 39.2234 110.748 39.2234C110.748 39.2234 109.659 40.0459 109.863 41.691C110.067 43.3359 110.884 43.8158 112.655 43.8843C114.493 44.0214 115.786 42.3078 115.786 42.3078C116.468 43.3359 118.306 43.1303 118.306 43.1303C118.306 43.1303 115.106 45.5293 113.131 46.1463C111.157 46.7632 112.518 46.2833 110.544 48.0655C108.637 49.9161 110.68 51.4926 111.157 51.6982C111.702 51.9724 112.995 53.2062 110.612 54.0972C108.229 54.9198 108.161 56.0165 108.161 56.0165C107.139 54.9883 105.709 54.0972 105.709 54.0972C104.688 57.593 105.369 60.1976 105.914 60.746C106.459 61.2943 106.459 62.7337 106.459 62.7337H105.097C105.097 62.7337 103.395 65.3383 107.139 67.6003C110.884 69.8622 113.744 67.6003 113.744 67.6003C113.88 69.5881 114.22 70.8904 114.833 72.8784C115.514 74.8659 115.31 77.8815 114.833 78.156C114.357 78.4299 112.382 76.511 111.225 77.6763C110.204 78.7044 110.952 80.8292 111.157 81.3775C108.842 83.0226 107.412 85.2159 107.412 87.5466H119.259C119.259 87.6152 119.259 87.7518 119.259 87.8891C119.259 88.3688 119.668 88.7799 120.144 88.7799C120.416 88.7799 120.621 88.6433 120.825 88.506H121.029C120.893 89.0544 120.757 89.6714 120.553 90.357C120.144 91.3164 119.599 92.07 118.986 92.7556C116.944 94.8117 114.085 95.0862 113.199 95.1549C113.267 94.7431 113.199 94.332 112.927 93.9209C112.655 93.3725 112.246 92.9615 111.633 92.7556C110.475 92.3445 109.25 92.9615 108.774 94.1268C108.705 94.1947 108.637 94.332 108.637 94.4693C107.344 94.2634 106.186 94.8117 105.846 95.9084C105.573 96.6626 105.778 97.4169 106.186 98.0332C105.709 98.6501 105.301 99.0619 105.301 99.0619C104.28 100.432 103.19 101.529 102.101 102.352C101.693 101.872 101.08 101.598 100.398 101.598C99.173 101.598 98.152 102.626 98.152 103.86C98.152 103.928 98.152 104.065 98.152 104.202C96.8579 104.408 95.9727 105.299 95.9727 106.464C95.9727 107.767 96.9944 108.795 98.2878 108.795C98.4923 108.795 98.6968 108.795 98.9006 108.726C98.9692 108.864 99.0371 109.069 99.1051 109.206C98.2199 109.412 97.5393 110.165 97.5393 111.125H97.9475C97.743 111.399 97.6072 111.742 97.6072 112.154V112.702C97.2668 113.182 96.9265 113.661 96.5862 114.141C89.0961 115.169 81.8112 117.294 74.798 120.584L74.6614 121.955C74.9338 121.818 75.2742 121.749 75.5466 121.612V125.177C76.5683 124.697 77.5893 124.217 78.6109 123.806V125.451C79.0192 125.245 79.4961 125.04 79.9043 124.834V129.564C83.7852 127.987 87.9385 126.685 92.2284 125.794C91.956 127.644 91.8194 129.564 91.8194 131.551C91.8194 131.894 91.8194 132.305 91.8194 132.648C91.6836 132.922 91.547 133.265 91.4791 133.471C90.6626 133.744 89.9812 134.499 89.9812 135.39H90.3902C90.1857 135.664 90.0492 136.075 90.0492 136.418V137.994H90.8664C90.2536 138.748 89.0961 140.393 88.7558 141.559C87.9385 141.764 87.2579 142.587 87.2579 143.478H87.6661C87.4624 143.752 87.3258 144.094 87.3258 144.506V146.082H88.0751C88.2789 147.042 88.4154 148.002 88.4154 149.098C88.4154 151.086 87.9385 152.937 87.122 154.65L157.115 134.773C156.911 134.156 156.503 133.607 155.822 133.402C155.685 133.059 155.55 132.716 155.345 132.305C155.345 132.031 155.345 131.757 155.345 131.482C155.345 129.564 155.141 127.644 154.937 125.794C159.022 126.685 163.039 127.919 166.716 129.426V124.697C167.124 124.902 167.601 125.04 168.077 125.313V123.668C169.099 124.08 170.12 124.56 171.142 125.04V121.681ZM211.313 119.556L208.726 100.295H209.27L204.164 65.7496H204.709C205.049 65.7496 205.321 65.4755 205.321 65.1327C205.321 64.79 205.049 64.5158 204.709 64.5158H203.688V62.3225H204.028C204.028 62.3225 205.389 60.6774 205.389 59.992C205.389 59.4436 204.368 58.0727 204.096 57.7301H204.913L202.87 55.4681V53.0691C202.87 52.7264 202.666 52.4522 202.326 52.4522C201.985 52.4522 201.781 52.7264 201.781 53.0691V55.4681L199.806 57.7301H200.555C200.283 58.0727 199.262 59.4436 199.262 59.992C199.262 60.6774 200.623 62.3225 200.623 62.3225H200.964V64.5158H200.01C199.67 64.5158 199.398 64.79 199.398 65.1327C199.398 65.4755 199.67 65.7496 200.01 65.7496H200.555L195.517 100.295H196.062L192.726 124.834L211.313 119.556ZM233.85 113.113L232.148 100.501H232.693L227.586 65.9552H228.131C228.471 65.9552 228.743 65.6811 228.743 65.3383C228.743 64.9957 228.471 64.7215 228.131 64.7215H227.177V62.5967H227.518C227.518 62.5967 228.88 60.883 228.88 60.2661C228.88 59.6493 227.858 58.3469 227.586 58.0043H228.335L226.36 55.7423V53.3433C226.36 53.0691 226.088 52.7949 225.748 52.7949C225.407 52.7949 225.203 53.0691 225.203 53.3433V55.7423L223.229 58.0043H223.977C223.705 58.3469 222.684 59.7178 222.684 60.2661C222.684 60.883 224.045 62.5967 224.045 62.5967H224.386V64.7215H223.432C223.092 64.7215 222.82 64.9957 222.82 65.3383C222.82 65.6811 223.092 65.9552 223.432 65.9552H223.909L218.871 100.501H219.416L217.033 117.911L233.85 113.113ZM165.218 219.561L241.952 205.578V158.9L80.8574 191.732L25.9793 172.129L68.5339 160.065C64.9933 157.735 62.6783 153.759 62.6783 149.236C62.6783 148.139 62.8145 147.111 63.0188 146.151H60.2953V141.764C60.2953 141.764 60.2953 141.764 60.3634 141.695L60.4314 140.393C60.908 140.187 61.3166 139.982 61.7932 139.708L61.7251 136.007C62.0655 135.869 62.406 135.664 62.7464 135.458C63.0188 135.321 63.1549 134.978 63.0188 134.635C62.8826 134.361 62.5421 134.224 62.2017 134.361C58.6612 136.075 55.2568 138.063 51.9886 140.187V139.434H52.329V137.652H52.7376V135.869H53.1461V134.224H51.2396L49.4013 128.33H54.1674L50.3545 100.295H50.8992L45.8608 65.7496H46.3374C46.6778 65.7496 46.9501 65.4755 46.9501 65.1327C46.9501 64.79 46.6778 64.5158 46.3374 64.5158H45.5203V62.3225H45.8608C45.8608 62.3225 47.2225 60.6774 47.2225 59.992C47.2225 59.4436 46.1331 58.0727 45.8608 57.7301H46.6097L44.6352 55.4681V53.0691C44.6352 52.7264 44.3628 52.4522 44.0905 52.4522C43.75 52.4522 43.4777 52.7264 43.4777 53.0691V55.4681L41.5031 57.7301H42.2521C41.9797 58.0727 40.8904 59.4436 40.8904 59.992C40.8904 60.6774 42.3202 62.3225 42.3202 62.3225H42.6606V64.5158H41.6393C41.2989 64.5158 41.0265 64.79 41.0265 65.1327C41.0265 65.4755 41.2989 65.7496 41.6393 65.7496H42.184L37.1456 100.295H37.6902L33.8774 128.33H38.7116L36.8732 134.224H33.8774V136.007H34.2859V137.789H34.7625V139.57H35.171V155.61C32.7199 158.625 30.473 161.779 28.4985 165.069V139.776H28.907V137.994H29.3155V136.212H29.7921V134.43H27.8176L26.0473 128.536H30.8815L27.0686 100.501H27.6134L22.5068 65.9552H23.0515C23.3919 65.9552 23.6642 65.6811 23.6642 65.3383C23.6642 64.9957 23.3919 64.7215 23.0515 64.7215H22.0982V62.5967H22.3706C22.3706 62.5967 23.8005 60.883 23.8005 60.2661C23.8005 59.6493 22.711 58.3469 22.4387 58.0043H23.1876L21.2131 55.7423V53.3433C21.2131 53.0691 20.9408 52.7949 20.6004 52.7949C20.3279 52.7949 20.0556 53.0691 20.0556 53.3433V55.7423L18.0811 58.0043H18.8301C18.5577 58.3469 17.5364 59.7178 17.5364 60.2661C17.5364 60.883 18.9662 62.5967 18.9662 62.5967H19.2386V64.7215H18.2853C17.9449 64.7215 17.6726 64.9957 17.6726 65.3383C17.6726 65.6811 17.9449 65.9552 18.2853 65.9552H18.8301L13.7916 100.501H14.3363L10.5234 128.536H15.3576L13.5192 134.43H10.5234V136.212H10.9319V137.994H11.3405V139.776H11.7489V168.496H1.19543C0.854991 168.496 0.582642 168.77 0.582642 169.113C0.582642 169.456 0.854991 169.73 1.19543 169.73H2.421V173.979H3.30614C3.30614 174.322 3.57849 174.596 3.85084 174.596H4.46362V178.023H5.07641L11.9532 176.104V176.652V207.566L80.8574 191.732L124.025 206.058L11.9532 213.323V279.673L73.0956 265.896C76.4317 239.164 99.0371 218.464 126.477 218.464C145.268 218.464 161.746 228.128 171.346 242.797L202.87 232.515L165.218 219.561ZM203.075 232.584L241.885 245.676V219.698L203.075 232.584ZM180.334 280.29L241.952 278.302V258.15L178.427 258.561C179.652 263.086 180.402 267.883 180.402 272.819V280.29H180.334ZM241.952 289.817V279.056L180.334 292.422V309.832C180.334 309.832 180.334 309.9 180.334 310.038V317.44L241.952 329.436L196.334 306.816L241.952 289.817Z" fill="white"/>
<path d="M406.864 157.027H375.392L370.185 172.083H353.543L381.958 92.9514H400.411L428.826 172.083H412.071L406.864 157.027ZM402.562 144.348L391.128 111.291L379.694 144.348H402.562ZM465.428 108.348C470.108 108.348 474.221 109.291 477.768 111.178C481.315 112.989 484.107 115.367 486.145 118.31V109.367H502.107V172.536C502.107 178.347 500.938 183.517 498.598 188.046C496.259 192.65 492.749 196.272 488.07 198.914C483.391 201.631 477.73 202.989 471.089 202.989C462.183 202.989 454.862 200.914 449.126 196.763C443.466 192.612 440.259 186.951 439.504 179.782H455.24C456.07 182.649 457.843 184.913 460.56 186.574C463.353 188.31 466.712 189.178 470.636 189.178C475.24 189.178 478.976 187.782 481.843 184.989C484.712 182.272 486.145 178.121 486.145 172.536V162.8C484.107 165.744 481.277 168.197 477.655 170.159C474.108 172.121 470.032 173.102 465.428 173.102C460.146 173.102 455.315 171.744 450.938 169.027C446.561 166.31 443.089 162.498 440.523 157.593C438.032 152.612 436.787 146.914 436.787 140.499C436.787 134.159 438.032 128.536 440.523 123.631C443.089 118.725 446.523 114.951 450.824 112.31C455.202 109.668 460.07 108.348 465.428 108.348ZM486.145 140.725C486.145 136.876 485.391 133.593 483.881 130.876C482.372 128.083 480.334 125.97 477.768 124.536C475.202 123.027 472.447 122.272 469.504 122.272C466.56 122.272 463.843 122.989 461.353 124.423C458.862 125.857 456.824 127.97 455.24 130.763C453.73 133.48 452.975 136.725 452.975 140.499C452.975 144.272 453.73 147.593 455.24 150.461C456.824 153.253 458.862 155.404 461.353 156.914C463.919 158.423 466.636 159.178 469.504 159.178C472.447 159.178 475.202 158.461 477.768 157.027C480.334 155.517 482.372 153.404 483.881 150.687C485.391 147.895 486.145 144.574 486.145 140.725ZM577.304 139.367C577.304 141.631 577.153 143.668 576.851 145.48H531.002C531.379 150.008 532.964 153.555 535.757 156.121C538.549 158.688 541.983 159.97 546.059 159.97C551.946 159.97 556.134 157.442 558.625 152.385H575.719C573.908 158.423 570.436 163.404 565.304 167.329C560.172 171.178 553.87 173.102 546.398 173.102C540.36 173.102 534.926 171.781 530.097 169.14C525.342 166.423 521.606 162.612 518.889 157.706C516.247 152.801 514.927 147.14 514.927 140.725C514.927 134.234 516.247 128.536 518.889 123.631C521.53 118.725 525.229 114.951 529.983 112.31C534.738 109.668 540.21 108.348 546.398 108.348C552.36 108.348 557.681 109.631 562.361 112.197C567.115 114.763 570.776 118.423 573.342 123.178C575.983 127.857 577.304 133.253 577.304 139.367ZM560.889 134.838C560.813 130.763 559.342 127.517 556.474 125.102C553.606 122.612 550.096 121.367 545.946 121.367C542.021 121.367 538.7 122.574 535.983 124.989C533.341 127.329 531.719 130.612 531.115 134.838H560.889ZM625.042 108.461C632.514 108.461 638.552 110.838 643.156 115.593C647.759 120.272 650.061 126.838 650.061 135.291V172.083H634.212V137.442C634.212 132.461 632.967 128.65 630.476 126.008C627.986 123.291 624.59 121.933 620.288 121.933C615.91 121.933 612.438 123.291 609.873 126.008C607.382 128.65 606.137 132.461 606.137 137.442V172.083H590.288V109.367H606.137V117.178C608.249 114.461 610.929 112.348 614.174 110.838C617.495 109.253 621.118 108.461 625.042 108.461ZM662.472 140.499C662.472 134.159 663.718 128.536 666.208 123.631C668.774 118.725 672.246 114.951 676.623 112.31C681.001 109.668 685.869 108.348 691.227 108.348C695.303 108.348 699.189 109.253 702.887 111.065C706.586 112.8 709.529 115.14 711.718 118.083V88.3099H727.793V172.083H711.718V162.8C709.756 165.895 707 168.385 703.453 170.272C699.907 172.159 695.793 173.102 691.114 173.102C685.831 173.102 681.001 171.744 676.623 169.027C672.246 166.31 668.774 162.498 666.208 157.593C663.718 152.612 662.472 146.914 662.472 140.499ZM711.831 140.725C711.831 136.876 711.076 133.593 709.567 130.876C708.057 128.083 706.02 125.97 703.453 124.536C700.887 123.027 698.133 122.272 695.189 122.272C692.246 122.272 689.529 122.989 687.038 124.423C684.548 125.857 682.51 127.97 680.925 130.763C679.416 133.48 678.661 136.725 678.661 140.499C678.661 144.272 679.416 147.593 680.925 150.461C682.51 153.253 684.548 155.404 687.038 156.914C689.605 158.423 692.322 159.178 695.189 159.178C698.133 159.178 700.887 158.461 703.453 157.027C706.02 155.517 708.057 153.404 709.567 150.687C711.076 147.895 711.831 144.574 711.831 140.725ZM740.612 140.499C740.612 134.159 741.857 128.536 744.348 123.631C746.914 118.725 750.348 114.951 754.65 112.31C759.027 109.668 763.895 108.348 769.254 108.348C773.933 108.348 778.008 109.291 781.48 111.178C785.027 113.065 787.857 115.442 789.971 118.31V109.367H805.933V172.083H789.971V162.914C787.933 165.857 785.103 168.31 781.48 170.272C777.933 172.159 773.82 173.102 769.141 173.102C763.857 173.102 759.027 171.744 754.65 169.027C750.348 166.31 746.914 162.498 744.348 157.593C741.857 152.612 740.612 146.914 740.612 140.499ZM789.971 140.725C789.971 136.876 789.216 133.593 787.707 130.876C786.197 128.083 784.159 125.97 781.594 124.536C779.027 123.027 776.273 122.272 773.329 122.272C770.386 122.272 767.669 122.989 765.178 124.423C762.688 125.857 760.65 127.97 759.065 130.763C757.555 133.48 756.801 136.725 756.801 140.499C756.801 144.272 757.555 147.593 759.065 150.461C760.65 153.253 762.688 155.404 765.178 156.914C767.744 158.423 770.461 159.178 773.329 159.178C776.273 159.178 779.027 158.461 781.594 157.027C784.159 155.517 786.197 153.404 787.707 150.687C789.216 147.895 789.971 144.574 789.971 140.725ZM354.336 282.008C354.336 275.668 355.581 270.046 358.071 265.14C360.637 260.235 364.109 256.461 368.486 253.819C372.864 251.178 377.732 249.857 383.09 249.857C387.166 249.857 391.052 250.763 394.751 252.574C398.449 254.31 401.392 256.65 403.581 259.593V229.819H419.656V313.593H403.581V304.31C401.619 307.404 398.864 309.895 395.317 311.782C391.77 313.669 387.656 314.612 382.977 314.612C377.694 314.612 372.864 313.253 368.486 310.536C364.109 307.819 360.637 304.008 358.071 299.102C355.581 294.121 354.336 288.423 354.336 282.008ZM403.694 282.234C403.694 278.385 402.939 275.102 401.43 272.385C399.92 269.593 397.883 267.48 395.317 266.046C392.751 264.537 389.996 263.782 387.052 263.782C384.109 263.782 381.392 264.498 378.902 265.933C376.411 267.367 374.373 269.479 372.788 272.272C371.279 274.989 370.524 278.235 370.524 282.008C370.524 285.781 371.279 289.103 372.788 291.97C374.373 294.763 376.411 296.914 378.902 298.423C381.468 299.932 384.185 300.687 387.052 300.687C389.996 300.687 392.751 299.971 395.317 298.536C397.883 297.027 399.92 294.914 401.43 292.197C402.939 289.404 403.694 286.084 403.694 282.234ZM494.853 280.876C494.853 283.14 494.702 285.178 494.4 286.989H448.551C448.928 291.517 450.513 295.064 453.305 297.631C456.098 300.197 459.532 301.48 463.608 301.48C469.494 301.48 473.683 298.952 476.174 293.895H493.268C491.457 299.932 487.985 304.913 482.853 308.838C477.72 312.687 471.419 314.612 463.947 314.612C457.909 314.612 452.475 313.291 447.645 310.65C442.89 307.933 439.154 304.121 436.437 299.216C433.796 294.31 432.475 288.65 432.475 282.234C432.475 275.744 433.796 270.046 436.437 265.14C439.079 260.235 442.777 256.461 447.532 253.819C452.287 251.178 457.758 249.857 463.947 249.857C469.909 249.857 475.23 251.14 479.91 253.706C484.664 256.272 488.324 259.933 490.891 264.687C493.532 269.366 494.853 274.763 494.853 280.876ZM478.437 276.348C478.362 272.272 476.89 269.027 474.022 266.612C471.154 264.121 467.645 262.876 463.494 262.876C459.57 262.876 456.249 264.084 453.532 266.499C450.89 268.838 449.268 272.121 448.664 276.348H478.437ZM581.057 273.065C585.51 273.895 589.17 276.121 592.038 279.744C594.906 283.367 596.34 287.518 596.34 292.197C596.34 296.423 595.283 300.159 593.17 303.404C591.132 306.574 588.151 309.065 584.227 310.876C580.302 312.687 575.661 313.593 570.302 313.593H536.227V234.574H568.831C574.189 234.574 578.793 235.442 582.642 237.178C586.566 238.913 589.509 241.329 591.472 244.423C593.51 247.517 594.529 251.027 594.529 254.951C594.529 259.555 593.283 263.404 590.793 266.499C588.377 269.593 585.132 271.782 581.057 273.065ZM552.076 267.178H566.566C570.34 267.178 573.246 266.348 575.283 264.687C577.321 262.952 578.34 260.499 578.34 257.329C578.34 254.159 577.321 251.706 575.283 249.97C573.246 248.235 570.34 247.367 566.566 247.367H552.076V267.178ZM568.038 300.687C571.887 300.687 574.868 299.782 576.982 297.97C579.17 296.159 580.265 293.593 580.265 290.272C580.265 286.876 579.132 284.235 576.868 282.348C574.604 280.386 571.548 279.404 567.699 279.404H552.076V300.687H568.038ZM626.235 260.612C628.273 257.291 630.914 254.688 634.16 252.8C637.48 250.913 641.254 249.97 645.481 249.97V266.612H641.292C636.311 266.612 632.537 267.781 629.971 270.121C627.481 272.461 626.235 276.537 626.235 282.348V313.593H610.386V250.876H626.235V260.612ZM653.495 282.008C653.495 275.668 654.74 270.046 657.231 265.14C659.797 260.235 663.232 256.461 667.533 253.819C671.91 251.178 676.778 249.857 682.137 249.857C686.816 249.857 690.892 250.8 694.364 252.687C697.911 254.574 700.741 256.952 702.854 259.819V250.876H718.816V313.593H702.854V304.423C700.816 307.367 697.986 309.82 694.364 311.782C690.816 313.669 686.703 314.612 682.024 314.612C676.741 314.612 671.91 313.253 667.533 310.536C663.232 307.819 659.797 304.008 657.231 299.102C654.74 294.121 653.495 288.423 653.495 282.008ZM702.854 282.234C702.854 278.385 702.099 275.102 700.59 272.385C699.08 269.593 697.042 267.48 694.477 266.046C691.911 264.537 689.156 263.782 686.213 263.782C683.269 263.782 680.552 264.498 678.061 265.933C675.571 267.367 673.533 269.479 671.949 272.272C670.439 274.989 669.684 278.235 669.684 282.008C669.684 285.781 670.439 289.103 671.949 291.97C673.533 294.763 675.571 296.914 678.061 298.423C680.627 299.932 683.344 300.687 686.213 300.687C689.156 300.687 691.911 299.971 694.477 298.536C697.042 297.027 699.08 294.914 700.59 292.197C702.099 289.404 702.854 286.084 702.854 282.234ZM760.277 249.857C764.956 249.857 769.069 250.8 772.616 252.687C776.163 254.499 778.956 256.876 780.994 259.819V250.876H796.956V314.046C796.956 319.857 795.786 325.027 793.446 329.555C791.107 334.159 787.597 337.782 782.918 340.423C778.239 343.14 772.579 344.499 765.937 344.499C757.031 344.499 749.711 342.423 743.975 338.272C738.314 334.121 735.107 328.461 734.352 321.291H750.088C750.918 324.159 752.692 326.423 755.409 328.084C758.201 329.819 761.559 330.687 765.484 330.687C770.088 330.687 773.824 329.291 776.692 326.499C779.559 323.782 780.994 319.63 780.994 314.046V304.31C778.956 307.253 776.126 309.706 772.503 311.668C768.956 313.63 764.881 314.612 760.277 314.612C754.993 314.612 750.164 313.253 745.786 310.536C741.408 307.819 737.937 304.008 735.371 299.102C732.88 294.121 731.635 288.423 731.635 282.008C731.635 275.668 732.88 270.046 735.371 265.14C737.937 260.235 741.371 256.461 745.673 253.819C750.05 251.178 754.918 249.857 760.277 249.857ZM780.994 282.234C780.994 278.385 780.239 275.102 778.729 272.385C777.22 269.593 775.182 267.48 772.616 266.046C770.05 264.537 767.295 263.782 764.352 263.782C761.409 263.782 758.692 264.498 756.201 265.933C753.711 267.367 751.673 269.479 750.088 272.272C748.579 274.989 747.824 278.235 747.824 282.008C747.824 285.781 748.579 289.103 750.088 291.97C751.673 294.763 753.711 296.914 756.201 298.423C758.767 299.932 761.484 300.687 764.352 300.687C767.295 300.687 770.05 299.971 772.616 298.536C775.182 297.027 777.22 294.914 778.729 292.197C780.239 289.404 780.994 286.084 780.994 282.234ZM809.775 282.008C809.775 275.668 811.02 270.046 813.511 265.14C816.077 260.235 819.511 256.461 823.813 253.819C828.19 251.178 833.058 249.857 838.417 249.857C843.096 249.857 847.171 250.8 850.643 252.687C854.19 254.574 857.02 256.952 859.134 259.819V250.876H875.096V313.593H859.134V304.423C857.096 307.367 854.266 309.82 850.643 311.782C847.095 313.669 842.983 314.612 838.303 314.612C833.02 314.612 828.19 313.253 823.813 310.536C819.511 307.819 816.077 304.008 813.511 299.102C811.02 294.121 809.775 288.423 809.775 282.008ZM859.134 282.234C859.134 278.385 858.379 275.102 856.87 272.385C855.36 269.593 853.322 267.48 850.756 266.046C848.19 264.537 845.436 263.782 842.492 263.782C839.549 263.782 836.832 264.498 834.341 265.933C831.851 267.367 829.813 269.479 828.228 272.272C826.718 274.989 825.964 278.235 825.964 282.008C825.964 285.781 826.718 289.103 828.228 291.97C829.813 294.763 831.851 296.914 834.341 298.423C836.907 299.932 839.624 300.687 842.492 300.687C845.436 300.687 848.19 299.971 850.756 298.536C853.322 297.027 855.36 294.914 856.87 292.197C858.379 289.404 859.134 286.084 859.134 282.234Z" fill="white"/>
</svg>
